<?xml version="1.0" encoding="utf-8"?>
<!-- Generator: Adobe Illustrator 19.2.0, SVG Export Plug-In . SVG Version: 6.00 Build 0)  -->
<svg version="1.1" id="Layer_1" xmlns="http://www.w3.org/2000/svg" xmlns:xlink="http://www.w3.org/1999/xlink" x="0px" y="0px"
	 viewBox="0 0 40 40" style="enable-background:new 0 0 40 40;" xml:space="preserve">
<g>
	<g>
		<path d="M10.8,9.7c2.1-2.2,6.6-2.2,8.7,0c1.3,1.4,3.3,2.1,5.3,2.1c2,0,4-0.7,5.3-2.1c2.1-2.2,6.6-2.2,8.7,0l1-1.7
			c-2.7-2.8-8-2.8-10.7,0c-2.1,2.2-6.6,2.3-8.7,0c-2.7-2.9-8-2.8-10.6,0c-2.1,2.3-6.5,2.2-8.7,0C1,7.9,0,9.5,0.2,9.7
			C2.9,12.4,8.1,12.5,10.8,9.7z M29.2,15.5c-2.1,2.2-6.6,2.2-8.7,0c-2.7-2.8-8-2.9-10.6,0c-2.1,2.2-6.6,2.2-8.7,0
			c-0.2-0.2-1.1,1.5-1,1.7c1.3,1.4,3.3,2.1,5.3,2.1c2,0,4-0.7,5.3-2.1c2.1-2.3,6.6-2.2,8.7,0c2.7,2.8,8,2.8,10.6,0
			c2.1-2.3,6.6-2.2,8.7,0l1-1.7C37.2,12.6,31.9,12.6,29.2,15.5z M29.2,22.9c-2.1,2.2-6.6,2.2-8.7,0c-2.7-2.9-8-2.9-10.6,0
			c-2.1,2.2-6.6,2.2-8.7,0c-0.2-0.2-1,1.5-1,1.7c2.7,2.8,8,2.8,10.6,0c2.1-2.3,6.6-2.3,8.7,0c1.3,1.4,3.3,2.1,5.3,2.1
			c2,0,4-0.7,5.3-2.1c2.1-2.3,6.6-2.2,8.7,0l1-1.7C37.2,20,31.9,20,29.2,22.9z M29.2,30.3c-2.1,2.2-6.6,2.2-8.7,0
			c-2.7-2.9-8-2.9-10.6,0c-2.1,2.2-6.6,2.3-8.7,0c-0.2-0.2-1,1.5-1,1.7c2.7,2.8,8,2.8,10.6,0c2.1-2.3,6.6-2.2,8.7,0
			c1.3,1.4,3.3,2.1,5.3,2.1c2,0,4-0.7,5.3-2.1c2.1-2.2,6.6-2.2,8.7,0l1-1.7C37.2,27.5,31.9,27.5,29.2,30.3z"/>
	</g>
</g>
</svg>
